<svg id="Calque_1" data-name="Calque 1" xmlns="http://www.w3.org/2000/svg" viewBox="0 0 375 384"><defs><style>.cls-1{fill:#5ebdd4;fill-rule:evenodd;}</style></defs><path class="cls-1" d="M333.73,216.58a21.86,21.86,0,0,0-29.62-7.94c-1.89.87-26,12.7-45.88,20.93a4.37,4.37,0,0,0,3.34,8.08c20.91-8.8,46.17-21.22,46.46-21.36s.15,0,.29-.14a13.11,13.11,0,0,1,17.86,4.76c4.07,7.21-2.32,15-5.52,18.33C299,256.56,239.06,301,219,301c-22.36,0-84.94-13.13-100.19-16.45V213.84c30.35-4.48,46.46,1.15,80.15,12.7,10.17,3.6,21.78,7.65,35.87,12.12,2.18.87,8,4.19,5.81,11.55-1.46,4.47-5.81,8.8-12.2,7.65-8.57-1.59-59-8.52-61.13-8.81a4.37,4.37,0,1,0-1.16,8.66c.43,0,52.41,7.07,60.69,8.66a34.69,34.69,0,0,0,3.78.29c9.29,0,16.11-6.64,18.29-14,2.33-7.65,0-17.46-10.74-22.08h-.29l-.15-.15c-14.08-4.47-25.7-8.51-36-12C168.2,206.76,150.48,200.7,118.83,205v-3.61a4.45,4.45,0,0,0-4.36-4.33H101.4v-4.33a4.45,4.45,0,0,0-4.35-4.33H43.18a4.36,4.36,0,0,0-4.36,4.33V288a4.36,4.36,0,0,0,8.71,0V197.09H92.69V301H84v-4.33a4.45,4.45,0,0,0-4.36-4.33,4.35,4.35,0,0,0-4.35,4.33V301H43.18a4.36,4.36,0,0,0-4.36,4.33,4.27,4.27,0,0,0,4.36,4.33H97.05a4.35,4.35,0,0,0,4.35-4.33v-4.47h13.07a4.46,4.46,0,0,0,4.36-4.33v-3.18c18.15,3.9,77.54,16.31,100.19,16.31,11.91,0,33-10.54,64.47-32.19,22.8-15.73,42.55-31.6,42.84-31.75l.29-.29c9.44-9.38,12.05-20.2,7.11-28.86ZM101.4,292.21V205.75h8.72V288h0v4.19Z"/><path class="cls-1" d="M154.61,181.3H287.13A15.82,15.82,0,0,0,303,165.4V90.23a15.82,15.82,0,0,0-15.84-15.9H154.61a15.83,15.83,0,0,0-15.84,15.9V165.4a15.83,15.83,0,0,0,15.84,15.9Zm139.72-66.49H147.41V100.35H294.33v14.46Zm-7.2,57.82H154.61a7.15,7.15,0,0,1-7.2-7.23V123.48H294.33V165.4a7.15,7.15,0,0,1-7.2,7.23ZM154.61,83H287.13a7.15,7.15,0,0,1,7.2,7.23v1.45H147.41V90.23a7.15,7.15,0,0,1,7.2-7.23Z"/><path class="cls-1" d="M198.61,145.65H157.46c-2.5,0-4.41,1.54-4.41,3.56s1.91,3.57,4.41,3.57h41.15c2.5,0,4.41-1.55,4.41-3.57s-1.91-3.56-4.41-3.56Z"/><path class="cls-1" d="M277,145.65H264.73c-2.45,0-4.59,1.54-4.59,3.56s2.14,3.57,4.59,3.57H277c2.6,0,4.59-1.55,4.59-3.57s-2-3.56-4.59-3.56Z"/></svg>